<svg width="33" height="32" fill="none" xmlns="http://www.w3.org/2000/svg"><path d="M23.778 9.717v1.692a.719.719 0 01-.718.719h-1.692a.717.717 0 01-.717-.719V9.717c0-.396.319-.717.717-.717h1.692c.396 0 .718.321.718.717zm-7 9.871a3.589 3.589 0 100-7.176A3.587 3.587 0 0013.19 16a3.587 3.587 0 003.588 3.588zm5.681-4.388c.037.261.061.528.061.799A5.742 5.742 0 1111.035 16c0-.272.024-.537.061-.799a5.57 5.57 0 01.158-.756H9.778v7.839c0 .396.321.717.717.717H23.06a.718.718 0 00.718-.717v-7.839h-1.476c.066.246.12.498.157.755zm10.319.8c0 8.836-7.164 16-16 16s-16-7.164-16-16 7.164-16 16-16 16 7.164 16 16zM26.11 8.82c0-1.19-.964-2.153-2.153-2.153H9.598c-1.19 0-2.154.964-2.154 2.153v14.359c0 1.19.964 2.154 2.154 2.154h14.36c1.19 0 2.153-.964 2.153-2.154V8.82z" fill="#D6D6D6"/></svg>