<svg width="33" height="32" fill="none" xmlns="http://www.w3.org/2000/svg"><path d="M16.778 0c-8.836 0-16 7.164-16 16s7.164 16 16 16 16-7.164 16-16-7.164-16-16-16zm8.088 12.86c.244 5.387-3.774 11.392-10.886 11.392-2.162 0-4.174-.635-5.869-1.721a7.705 7.705 0 005.67-1.586 3.838 3.838 0 01-3.58-2.66 3.84 3.84 0 001.731-.065c-1.84-.37-3.113-2.03-3.072-3.804a3.82 3.82 0 001.735.479A3.835 3.835 0 019.41 9.78a10.87 10.87 0 007.893 4.002c-.559-2.395 1.259-4.703 3.732-4.703 1.1 0 2.096.465 2.795 1.21a7.637 7.637 0 002.432-.93 3.846 3.846 0 01-1.684 2.119 7.643 7.643 0 002.198-.604 7.689 7.689 0 01-1.91 1.985z" fill="#D6D6D6"/></svg>